<svg width="800" height="800" viewBox="0 0 800 800" fill="none" xmlns="http://www.w3.org/2000/svg">
  <title>Rekaz Logo</title>
  <path fill="#7B42C6" d="M83 300c0-11 9-20 20-20h188c17 0 31 14 31 31 0 14-9 26-22 30-70 22-109 63-109 123 0 42 16 74 60 125l41 49c5 6 13 10 21 10h91c18 0 28-21 17-35l-90-111c-8-10-3-26 10-30 66-22 109-83 109-161 0-103-78-188-186-191H103c-7 0-14-3-18-9L40 148c-9-13 0-31 16-31h0l183 1c208 0 337 124 337 292 0 119-75 228-187 268-8 3-13 10-13 19 0 11 9 20 20 20h231c11 0 20-9 20-20v-38c0-11-9-20-20-20H508c-11 0-20-9-20-20 0-8 5-16 13-19 107-38 187-149 187-270 0-82-32-156-86-210C546 55 470 23 388 20L71 18C40 17 15 42 16 73c0 7 2 15 6 21l61 94c8 13 23 21 39 21h0c17 0 31 14 31 31v60Z"/>
  <path fill="#7B42C6" d="M607 430c-11 0-20 9-20 20v10c0 28 22 50 50 50h73c11 0 20 9 20 20s-9 20-20 20h-95c-11 0-20 9-20 20s9 20 20 20h135c11 0 20-9 20-20v-20c0-28-22-50-50-50h-73c-11 0-20-9-20-20v-10c0-11-9-20-20-20Zm165-60h-20c-11 0-20 9-20 20v50c0 11 9 20 20 20h20c28 0 50-22 50-50v-40c0-11-9-20-20-20s-20 9-20 20v30c0 5-5 10-10 10Zm-145-20h150c11 0 20-9 20-20v-20c0-11-9-20-20-20h-150c-11 0-20 9-20 20v40c0 11 9 20 20 20Zm0-100h50c11 0 20-9 20-20v-20c0-11-9-20-20-20h-50c-11 0-20 9-20 20v20c0 11 9 20 20 20Z"/>
  <text x="300" y="640" font-family="Tajawal, Arial, sans-serif" font-weight="700" font-size="180" fill="#7B42C6">Rekaz</text>
</svg>
